<svg width="12" height="22" viewBox="0 0 12 22" fill="none" xmlns="http://www.w3.org/2000/svg">
<g id="Arrow - Right 1">
<path id="Vector 58 (Stroke)" fill-rule="evenodd" clip-rule="evenodd" d="M1.01007 1.01003C1.55681 0.463292 2.44324 0.463292 2.98997 1.01003L2.12312 1.87688C2.98998 1.01003 2.98988 1.00994 2.98997 1.01003L3.08187 1.10217L3.33811 1.36014C3.55849 1.58249 3.87294 1.90086 4.25012 2.28591C5.00394 3.05542 6.01091 4.09384 7.0195 5.16546C8.02472 6.23351 9.0457 7.34952 9.8209 8.27006C10.206 8.72733 10.5504 9.15996 10.8055 9.52666C10.9317 9.70799 11.0559 9.90153 11.1542 10.092C11.2216 10.2225 11.4 10.5736 11.4 11C11.4 11.4264 11.2216 11.7775 11.1542 11.9079C11.0559 12.0984 10.9317 12.292 10.8055 12.4733C10.5504 12.84 10.206 13.2726 9.8209 13.7299C9.04571 14.6504 8.02472 15.7664 7.0195 16.8345C6.01091 17.9061 5.00394 18.9445 4.25012 19.714C3.87294 20.0991 3.55849 20.4175 3.33811 20.6398L3.08187 20.8978L2.99167 20.9882L2.99012 20.9898C2.99003 20.9899 2.98997 20.9899 2.00002 20L1.0101 19.01L1.09786 18.922L1.34943 18.6687C1.56655 18.4497 1.87711 18.1352 2.24992 17.7547C2.99611 16.9929 3.98913 15.9688 4.98054 14.9155C5.97533 13.8585 6.95434 12.787 7.67915 11.9263C7.98876 11.5586 8.23762 11.2463 8.41735 11C8.23762 10.7536 7.98876 10.4413 7.67915 10.0736C6.95434 9.21293 5.97533 8.14145 4.98054 7.08449C3.98913 6.03111 2.99611 5.00703 2.24992 4.24529C1.87711 3.86471 1.56655 3.55028 1.34943 3.33122L1.09786 3.07795L1.01129 2.99114C0.464553 2.44441 0.463339 1.55676 1.01007 1.01003ZM8.66611 11.3762C8.6805 11.4122 8.68563 11.414 8.66611 11.3762C8.66586 11.3757 8.66637 11.3767 8.66611 11.3762ZM1.01007 20.9899C0.463339 20.4432 0.46337 19.5567 1.0101 19.01L2.00002 20L2.99012 20.9898C2.44339 21.5365 1.55681 21.5367 1.01007 20.9899Z" fill="white"/>
</g>
</svg>
