<svg width="12" height="22" viewBox="0 0 12 22" fill="none" xmlns="http://www.w3.org/2000/svg">
<g id="Arrow - Left 1">
<path id="Vector 58 (Stroke)" fill-rule="evenodd" clip-rule="evenodd" d="M10.9901 20.99C10.4434 21.5367 9.55695 21.5367 9.01021 20.99L9.87707 20.1231C9.01021 20.99 9.0103 20.9901 9.01021 20.99L8.91831 20.8978L8.66207 20.6399C8.44169 20.4175 8.12725 20.0991 7.75006 19.7141C6.99625 18.9446 5.98927 17.9062 4.98068 16.8345C3.97546 15.7665 2.95448 14.6505 2.17928 13.7299C1.79421 13.2727 1.44973 12.84 1.19464 12.4733C1.06849 12.292 0.944245 12.0985 0.845933 11.908C0.778606 11.7775 0.600159 11.4264 0.600159 11C0.600159 10.5736 0.778605 10.2225 0.845933 10.0921C0.944244 9.90158 1.06849 9.70804 1.19464 9.52671C1.44973 9.16001 1.79421 8.72739 2.17928 8.27011C2.95448 7.34957 3.97546 6.23356 4.98068 5.16552C5.98927 4.09389 6.99625 3.05548 7.75006 2.28596C8.12724 1.90091 8.44169 1.58254 8.66207 1.36019L8.91831 1.10222L9.00851 1.01178L9.01006 1.01023C9.01015 1.01014 9.01021 1.01008 10.0002 2.00003L10.9901 2.99001L10.9023 3.078L10.6507 3.33127C10.4336 3.55033 10.1231 3.86476 9.75026 4.24534C9.00407 5.00708 8.01105 6.03116 7.01964 7.08454C6.02485 8.1415 5.04584 9.21299 4.32103 10.0737C4.01142 10.4414 3.76256 10.7537 3.58283 11C3.76256 11.2464 4.01142 11.5587 4.32103 11.9264C5.04584 12.7871 6.02485 13.8586 7.01964 14.9155C8.01105 15.9689 9.00407 16.993 9.75026 17.7547C10.1231 18.1353 10.4336 18.4497 10.6507 18.6688L10.9023 18.922L10.9889 19.0089C11.5356 19.5556 11.5368 20.4432 10.9901 20.99ZM3.33407 10.6238C3.31968 10.5878 3.31456 10.586 3.33407 10.6238C3.33432 10.6243 3.33381 10.6233 3.33407 10.6238ZM10.9901 1.01008C11.5368 1.55681 11.5368 2.44327 10.9901 2.99001L10.0002 2.00003L9.01006 1.01023C9.55679 0.463496 10.4434 0.463343 10.9901 1.01008Z" fill="white"/>
</g>
</svg>
