<svg width="12" height="6" viewBox="0 0 12 6" fill="none" xmlns="http://www.w3.org/2000/svg">
<g id="Arrow - Down 1">
<path id="Vector 58 (Stroke)" fill-rule="evenodd" clip-rule="evenodd" d="M1.00503 0.505067C0.731661 0.778434 0.731661 1.22165 1.00503 1.49502L1.43846 1.06159C1.00503 1.49502 1.00498 1.49497 1.00503 1.49502L1.0511 1.54097L1.18008 1.66909C1.29126 1.77928 1.45045 1.9365 1.64297 2.12509C2.02773 2.502 2.54693 3.00549 3.08275 3.50978C3.61677 4.01239 4.17477 4.52288 4.63505 4.91048C4.86368 5.10302 5.08 5.27525 5.26334 5.4028C5.35401 5.46587 5.45078 5.528 5.54602 5.57716C5.61124 5.61082 5.7868 5.70004 6 5.70004C6.21321 5.70004 6.38876 5.61082 6.45399 5.57716C6.54923 5.528 6.64599 5.46587 6.73666 5.4028C6.92001 5.27525 7.13632 5.10302 7.36496 4.91048C7.82523 4.52288 8.38324 4.01239 8.91726 3.50978C9.45307 3.00549 9.97228 2.502 10.357 2.12509C10.5496 1.9365 10.7087 1.77928 10.8199 1.66909L10.9489 1.54097L10.9941 1.49587L10.9949 1.49509C10.9949 1.49505 10.995 1.49502 10.5 1.00004C10.005 0.505067 10.005 0.505067 10.005 0.505082L9.96101 0.548961L9.83438 0.674747C9.72485 0.783306 9.56763 0.938585 9.37735 1.12499C8.99648 1.49809 8.48443 1.9946 7.95775 2.4903C7.42927 2.98769 6.89352 3.4772 6.46317 3.8396C6.27934 3.99441 6.12318 4.11884 6 4.2087C5.87682 4.11884 5.72067 3.99441 5.53684 3.8396C5.10648 3.4772 4.57074 2.98769 4.04226 2.4903C3.51557 1.9946 3.00353 1.49809 2.62266 1.12499C2.43237 0.938585 2.27515 0.783307 2.16562 0.674747L2.03899 0.548961L1.99558 0.505674C1.99557 0.505662 1.99498 0.505068 1.72497 0.775073L1.99558 0.505674C1.72222 0.232307 1.2784 0.2317 1.00503 0.505067ZM6.18812 4.33309C6.20613 4.34028 6.20702 4.34284 6.18812 4.33309C6.18788 4.33296 6.18837 4.33322 6.18812 4.33309ZM10.995 0.505067C10.7216 0.2317 10.2784 0.231715 10.005 0.505082L10.5 1.00004L10.9949 1.49509C11.2683 1.22173 11.2683 0.778434 10.995 0.505067Z" fill="#222628"/>
</g>
</svg>
