<svg width="14" height="14" viewBox="0 0 14 14" fill="none" xmlns="http://www.w3.org/2000/svg">
<g id="Menu">
<path id="Line 92 (Stroke)" fill-rule="evenodd" clip-rule="evenodd" d="M0 1.29998C0 0.913376 0.313401 0.599976 0.7 0.599976H13.3C13.6866 0.599976 14 0.913376 14 1.29998C14 1.68657 13.6866 1.99998 13.3 1.99998H0.7C0.313401 1.99998 0 1.68657 0 1.29998Z" fill="#222628"/>
<path id="Line 93 (Stroke)" fill-rule="evenodd" clip-rule="evenodd" d="M0 7.29998C0 6.91338 0.313401 6.59998 0.7 6.59998H13.3C13.6866 6.59998 14 6.91338 14 7.29998C14 7.68657 13.6866 7.99998 13.3 7.99998H0.7C0.313401 7.99998 0 7.68657 0 7.29998Z" fill="#222628"/>
<path id="Line 94 (Stroke)" fill-rule="evenodd" clip-rule="evenodd" d="M0 13.3C0 12.9134 0.313401 12.6 0.7 12.6H13.3C13.6866 12.6 14 12.9134 14 13.3C14 13.6866 13.6866 14 13.3 14H0.7C0.313401 14 0 13.6866 0 13.3Z" fill="#222628"/>
</g>
</svg>
