<svg width="21" height="22" viewBox="0 0 21 22" fill="none" xmlns="http://www.w3.org/2000/svg">
<g id="Search">
<path id="Rectangle 5 (Stroke)" fill-rule="evenodd" clip-rule="evenodd" d="M10.4763 0.300049H10.5236C10.9656 0.300046 11.2115 0.300045 11.4231 0.309281C16.4478 0.528665 20.4714 4.55223 20.6908 9.57694C20.7 9.7885 20.7 10.0345 20.7 10.4764V10.5237C20.7 10.9656 20.7 11.2116 20.6908 11.4232C20.4714 16.4479 16.4478 20.4714 11.4231 20.6908C11.2115 20.7001 10.9656 20.7001 10.5236 20.7001H10.4764C10.0344 20.7001 9.78844 20.7001 9.57688 20.6908C4.55217 20.4714 0.528604 16.4479 0.30922 11.4232C0.299983 11.2116 0.299985 10.9656 0.299988 10.5237V10.4764C0.299985 10.0345 0.299983 9.7885 0.30922 9.57694C0.528604 4.55223 4.55217 0.528665 9.57688 0.309281C9.78844 0.300045 10.0344 0.300046 10.4763 0.300049ZM10.5 1.70005C10.0283 1.70005 9.81503 1.70022 9.63795 1.70795C5.33845 1.89567 1.89561 5.33851 1.70789 9.63801C1.70016 9.81509 1.69999 10.0284 1.69999 10.5C1.69999 10.9717 1.70016 11.185 1.70789 11.3621C1.89561 15.6616 5.33845 19.1044 9.63795 19.2922C9.81503 19.2999 10.0283 19.3 10.5 19.3C10.9716 19.3 11.1849 19.2999 11.362 19.2922C15.6615 19.1044 19.1044 15.6616 19.2921 11.3621C19.2998 11.185 19.3 10.9717 19.3 10.5C19.3 10.0284 19.2998 9.81509 19.2921 9.63801C19.1044 5.33851 15.6615 1.89567 11.362 1.70795C11.1849 1.70022 10.9716 1.70005 10.5 1.70005Z" fill="#222628"/>
<path id="Line 1 (Stroke)" fill-rule="evenodd" clip-rule="evenodd" d="M16.495 17.5051C16.7683 17.2317 17.2115 17.2317 17.4849 17.5051L20.0305 20.0507C20.3039 20.3241 20.3039 20.7673 20.0305 21.0406C19.7571 21.314 19.3139 21.314 19.0405 21.0406L16.495 18.4951C16.2216 18.2217 16.2216 17.7785 16.495 17.5051Z" fill="#222628"/>
</g>
</svg>
